<svg width="174" height="279" viewBox="0 0 174 279" fill="none" xmlns="http://www.w3.org/2000/svg">
<path d="M86.9999 0.793427C72.2411 1.46516 46.5973 1.41101 15.5283 16.3505C17.0742 45.1702 21.7488 111.153 21.7488 111.153L0.62085 124.771C0.62085 124.771 9.32667 229.235 16.9251 278.603H157.075C164.673 229.235 173.379 124.771 173.379 124.771L152.251 111.153C152.251 111.153 156.926 45.1702 158.471 16.3505C127.403 1.41101 101.759 1.46516 86.9999 0.793427Z" fill="url(#paint0_linear_15_618)"/>
<rect x="85.9229" y="60.4347" width="2.80602" height="182.409" fill="url(#paint1_linear_15_618)"/>
<rect opacity="0.54" x="85.9229" y="60.4347" width="0.688246" height="182.409" fill="url(#paint2_linear_15_618)"/>
<rect opacity="0.54" x="88.0408" y="60.4347" width="0.688246" height="182.409" fill="url(#paint3_linear_15_618)"/>
<rect x="98.4375" y="60.4347" width="2.80602" height="182.409" fill="url(#paint4_linear_15_618)"/>
<rect opacity="0.54" x="98.4375" y="60.4347" width="0.688246" height="182.409" fill="url(#paint5_linear_15_618)"/>
<rect opacity="0.54" x="100.555" y="60.4347" width="0.688246" height="182.409" fill="url(#paint6_linear_15_618)"/>
<rect x="110.437" y="60.3836" width="2.80602" height="182.409" fill="url(#paint7_linear_15_618)"/>
<rect opacity="0.54" x="110.437" y="60.3836" width="0.688246" height="182.409" fill="url(#paint8_linear_15_618)"/>
<rect opacity="0.54" x="112.555" y="60.3836" width="0.688246" height="182.409" fill="url(#paint9_linear_15_618)"/>
<rect x="122.887" y="61.7872" width="2.80602" height="182.409" fill="url(#paint10_linear_15_618)"/>
<rect opacity="0.54" x="122.887" y="61.7872" width="0.688246" height="182.409" fill="url(#paint11_linear_15_618)"/>
<rect opacity="0.54" x="125.005" y="61.7872" width="0.688246" height="182.409" fill="url(#paint12_linear_15_618)"/>
<rect x="73.4409" y="60.4347" width="2.80602" height="182.409" fill="url(#paint13_linear_15_618)"/>
<rect opacity="0.54" x="73.4409" y="60.4347" width="0.688246" height="182.409" fill="url(#paint14_linear_15_618)"/>
<rect opacity="0.54" x="75.5588" y="60.4347" width="0.688246" height="182.409" fill="url(#paint15_linear_15_618)"/>
<rect x="61.5459" y="60.4347" width="2.80602" height="182.409" fill="url(#paint16_linear_15_618)"/>
<rect opacity="0.54" x="61.5459" y="60.4347" width="0.688246" height="182.409" fill="url(#paint17_linear_15_618)"/>
<rect opacity="0.54" x="63.6636" y="60.4347" width="0.688246" height="182.409" fill="url(#paint18_linear_15_618)"/>
<rect x="49.0742" y="61.7872" width="2.78521" height="181.057" fill="url(#paint19_linear_15_618)"/>
<rect opacity="0.54" x="49.0742" y="61.7872" width="0.683142" height="181.057" fill="url(#paint20_linear_15_618)"/>
<rect opacity="0.54" x="51.1763" y="61.7872" width="0.683142" height="181.057" fill="url(#paint21_linear_15_618)"/>
<ellipse cx="87.3259" cy="59.5266" rx="3.59325" ry="3.4845" fill="white"/>
<ellipse cx="99.8403" cy="60.1659" rx="3.59325" ry="3.4845" fill="white"/>
<ellipse cx="111.735" cy="61.4445" rx="3.59325" ry="3.4845" fill="white"/>
<ellipse cx="124.29" cy="64.0018" rx="3.59325" ry="3.4845" fill="white"/>
<ellipse cx="3.59325" cy="3.4845" rx="3.59325" ry="3.4845" transform="matrix(-1 0 0 1 78.4373 56.6814)" fill="white"/>
<ellipse cx="3.59325" cy="3.4845" rx="3.59325" ry="3.4845" transform="matrix(-1 0 0 1 66.5425 57.96)" fill="white"/>
<ellipse cx="3.59325" cy="3.4845" rx="3.59325" ry="3.4845" transform="matrix(-1 0 0 1 53.988 60.5173)" fill="white"/>
<g opacity="0.38">
<path d="M87.0004 50.6851C104.204 50.6851 120.699 53.7203 135.979 59.2836L130.492 72.2388C116.776 67.8703 102.164 65.5123 87.0004 65.5123C71.8368 65.5123 57.224 67.8702 43.5083 72.2388L38.021 59.2836C53.3013 53.7202 69.7964 50.6851 87.0004 50.6851Z" fill="url(#paint22_linear_15_618)"/>
<path d="M87.0004 50.6851C104.204 50.6851 120.699 53.7203 135.979 59.2836L130.492 72.2388C116.776 67.8703 102.164 65.5123 87.0004 65.5123C71.8368 65.5123 57.224 67.8702 43.5083 72.2388L38.021 59.2836C53.3013 53.7202 69.7964 50.6851 87.0004 50.6851Z" fill="url(#paint23_radial_15_618)" fill-opacity="0.78"/>
</g>
<defs>
<linearGradient id="paint0_linear_15_618" x1="86.9999" y1="0.793427" x2="86.9999" y2="278.603" gradientUnits="userSpaceOnUse">
<stop offset="0.442308" stop-color="#1C211F"/>
<stop offset="1" stop-color="#1C211F" stop-opacity="0"/>
</linearGradient>
<linearGradient id="paint1_linear_15_618" x1="87.3259" y1="60.4347" x2="87.3259" y2="242.844" gradientUnits="userSpaceOnUse">
<stop stop-color="white"/>
<stop offset="1" stop-color="#868C93" stop-opacity="0"/>
</linearGradient>
<linearGradient id="paint2_linear_15_618" x1="86.267" y1="60.4347" x2="86.267" y2="242.844" gradientUnits="userSpaceOnUse">
<stop stop-color="#87898B"/>
<stop offset="1" stop-color="#868C93" stop-opacity="0"/>
</linearGradient>
<linearGradient id="paint3_linear_15_618" x1="88.3849" y1="60.4347" x2="88.3849" y2="242.844" gradientUnits="userSpaceOnUse">
<stop stop-color="#87898B"/>
<stop offset="1" stop-color="#868C93" stop-opacity="0"/>
</linearGradient>
<linearGradient id="paint4_linear_15_618" x1="99.8405" y1="60.4347" x2="99.8405" y2="242.844" gradientUnits="userSpaceOnUse">
<stop stop-color="white"/>
<stop offset="1" stop-color="#868C93" stop-opacity="0"/>
</linearGradient>
<linearGradient id="paint5_linear_15_618" x1="98.7816" y1="60.4347" x2="98.7816" y2="242.844" gradientUnits="userSpaceOnUse">
<stop stop-color="#87898B"/>
<stop offset="1" stop-color="#868C93" stop-opacity="0"/>
</linearGradient>
<linearGradient id="paint6_linear_15_618" x1="100.899" y1="60.4347" x2="100.899" y2="242.844" gradientUnits="userSpaceOnUse">
<stop stop-color="#87898B"/>
<stop offset="1" stop-color="#868C93" stop-opacity="0"/>
</linearGradient>
<linearGradient id="paint7_linear_15_618" x1="111.84" y1="60.3836" x2="111.84" y2="242.793" gradientUnits="userSpaceOnUse">
<stop stop-color="white"/>
<stop offset="1" stop-color="#868C93" stop-opacity="0"/>
</linearGradient>
<linearGradient id="paint8_linear_15_618" x1="110.781" y1="60.3836" x2="110.781" y2="242.793" gradientUnits="userSpaceOnUse">
<stop stop-color="#87898B"/>
<stop offset="1" stop-color="#868C93" stop-opacity="0"/>
</linearGradient>
<linearGradient id="paint9_linear_15_618" x1="112.899" y1="60.3836" x2="112.899" y2="242.793" gradientUnits="userSpaceOnUse">
<stop stop-color="#87898B"/>
<stop offset="1" stop-color="#868C93" stop-opacity="0"/>
</linearGradient>
<linearGradient id="paint10_linear_15_618" x1="124.29" y1="61.7872" x2="124.29" y2="244.196" gradientUnits="userSpaceOnUse">
<stop stop-color="white"/>
<stop offset="1" stop-color="#868C93" stop-opacity="0"/>
</linearGradient>
<linearGradient id="paint11_linear_15_618" x1="123.231" y1="61.7872" x2="123.231" y2="244.196" gradientUnits="userSpaceOnUse">
<stop stop-color="#87898B"/>
<stop offset="1" stop-color="#868C93" stop-opacity="0"/>
</linearGradient>
<linearGradient id="paint12_linear_15_618" x1="125.349" y1="61.7872" x2="125.349" y2="244.196" gradientUnits="userSpaceOnUse">
<stop stop-color="#87898B"/>
<stop offset="1" stop-color="#868C93" stop-opacity="0"/>
</linearGradient>
<linearGradient id="paint13_linear_15_618" x1="74.8439" y1="60.4347" x2="74.8439" y2="242.844" gradientUnits="userSpaceOnUse">
<stop stop-color="white"/>
<stop offset="1" stop-color="#868C93" stop-opacity="0"/>
</linearGradient>
<linearGradient id="paint14_linear_15_618" x1="73.785" y1="60.4347" x2="73.785" y2="242.844" gradientUnits="userSpaceOnUse">
<stop stop-color="#87898B"/>
<stop offset="1" stop-color="#868C93" stop-opacity="0"/>
</linearGradient>
<linearGradient id="paint15_linear_15_618" x1="75.903" y1="60.4347" x2="75.903" y2="242.844" gradientUnits="userSpaceOnUse">
<stop stop-color="#87898B"/>
<stop offset="1" stop-color="#868C93" stop-opacity="0"/>
</linearGradient>
<linearGradient id="paint16_linear_15_618" x1="62.9489" y1="60.4347" x2="62.9489" y2="242.844" gradientUnits="userSpaceOnUse">
<stop stop-color="white"/>
<stop offset="1" stop-color="#868C93" stop-opacity="0"/>
</linearGradient>
<linearGradient id="paint17_linear_15_618" x1="61.89" y1="60.4347" x2="61.89" y2="242.844" gradientUnits="userSpaceOnUse">
<stop stop-color="#87898B"/>
<stop offset="1" stop-color="#868C93" stop-opacity="0"/>
</linearGradient>
<linearGradient id="paint18_linear_15_618" x1="64.0077" y1="60.4347" x2="64.0077" y2="242.844" gradientUnits="userSpaceOnUse">
<stop stop-color="#87898B"/>
<stop offset="1" stop-color="#868C93" stop-opacity="0"/>
</linearGradient>
<linearGradient id="paint19_linear_15_618" x1="50.4668" y1="61.7872" x2="50.4668" y2="242.844" gradientUnits="userSpaceOnUse">
<stop stop-color="white"/>
<stop offset="1" stop-color="#868C93" stop-opacity="0"/>
</linearGradient>
<linearGradient id="paint20_linear_15_618" x1="49.4158" y1="61.7872" x2="49.4158" y2="242.844" gradientUnits="userSpaceOnUse">
<stop stop-color="#87898B"/>
<stop offset="1" stop-color="#868C93" stop-opacity="0"/>
</linearGradient>
<linearGradient id="paint21_linear_15_618" x1="51.5178" y1="61.7872" x2="51.5178" y2="242.844" gradientUnits="userSpaceOnUse">
<stop stop-color="#87898B"/>
<stop offset="1" stop-color="#868C93" stop-opacity="0"/>
</linearGradient>
<linearGradient id="paint22_linear_15_618" x1="42.549" y1="64.6209" x2="124.544" y2="64.6209" gradientUnits="userSpaceOnUse">
<stop stop-color="#D9D9D9" stop-opacity="0"/>
<stop offset="0.5" stop-color="#DCDCDC" stop-opacity="0.31"/>
<stop offset="1" stop-color="#D1D1D6" stop-opacity="0"/>
</linearGradient>
<radialGradient id="paint23_radial_15_618" cx="0" cy="0" r="1" gradientUnits="userSpaceOnUse" gradientTransform="translate(87.0001 53.8626) scale(43.5495 10.8768)">
<stop stop-color="white"/>
<stop offset="1" stop-color="white" stop-opacity="0"/>
</radialGradient>
</defs>
</svg>
